<svg xmlns="http://www.w3.org/2000/svg" viewBox="0 0 302 76" width="302" height="76">
  <!-- Left side calligraphic flourish -->
  <path d="M 10 37 Q 30 20, 50 28 Q 70 34, 90 38 Q 110 42, 130 38
           L 130 39 Q 110 43, 90 39 Q 70 35, 50 30 Q 30 24, 10 39 Z" 
        fill="#000000"/>
  
  <!-- Center five-lobed shape: r=sin(5θ) rotated 180° -->
  <path d="M 151 38 L 148.41535657403648 37.86454457780674 L 146.02739052315863 37.47735768366173 L 144.0159887666629 36.89384128958763 L 142.52899329113725 36.19943194008045 L 141.66987298107782 35.5 L 141.48943483704846 34.90983005625053 L 141.9823055512839 34.538431422199366 L 143.08846426169626 34.47755734446353 L 144.6996324466495 34.78980239039897 L 146.66987298107782 35.5 L 148.82936084448778 36.590370450318524 L 151 38 L 153.01140175649573 39.62880102675064 L 154.71572412738698 41.34565303179429 L 156 43 L 156.79484103556456 44.43582297554376 L 157.07876818725373 45.50665354967536 L 156.87785252292474 46.09016994374947 L 156.2608090992617 46.10093561327006 L 155.3301270189222 45.5 L 154.21019760960104 44.300367553350505 L 153.033683215379 42.567727288213 L 151.92752450496664 40.41628394512411 L 151 38 L 150.33012701892218 35.5 L 149.9604415459112 33.10926199633098 L 149.89384128958764 31.0159887666629 L 150.09475695391663 29.387187739912257 L 150.49447348221406 28.353979414855207 L 151 28 L 151.50552651778594 28.353979414855203 L 151.90524304608337 29.387187739912253 L 152.10615871041236 31.0159887666629 L 152.0395584540888 33.10926199633096 L 151.66987298107782 35.5 L 151 38 L 150.07247549503336 40.41628394512409 L 148.966316784621 42.567727288213 L 147.78980239039896 44.30036755335051 L 146.66987298107782 45.5 L 145.7391909007383 46.10093561327006 L 145.12214747707526 46.09016994374947 L 144.92123181274627 45.50665354967537 L 145.20515896443544 44.43582297554376 L 146 43.00000000000001 L 147.28427587261302 41.345653031794306 L 148.98859824350424 39.62880102675065 L 151 38 L 153.17063915551225 36.59037045031852 L 155.3301270189222 35.5 L 157.3003675533505 34.78980239039897 L 158.9115357383037 34.47755734446353 L 160.0176944487161 34.538431422199366 L 160.51056516295154 34.90983005625052 L 160.33012701892218 35.5 L 159.47100670886275 36.19943194008045 L 157.9840112333371 36.89384128958763 L 155.97260947684137 37.47735768366173 L 153.58464342596355 37.86454457780674 L 151 38 Z" 
        fill="none" 
        stroke="#000000" 
        stroke-width="1.5"/>
  
  <!-- Right side calligraphic flourish (mirrored) -->
  <path d="M 172 38 Q 192 42, 212 38 Q 232 34, 252 28 Q 272 20, 292 37
           L 292 39 Q 272 24, 252 30 Q 232 35, 212 39 Q 192 43, 172 39 Z" 
        fill="#000000"/>
</svg>