<?xml version="1.0" ?>
<svg xmlns="http://www.w3.org/2000/svg" width="800" height="600" viewBox="0 0 800 600">
  <rect width="800" height="600" fill="#ffffff"/>
  <path d="M 742.81,307.83 L 742.52,310.15 L 742.34,312.47 L 742.84,314.75 L 743.48,317.00 L 743.99,319.32 L 744.02,321.69 L 743.64,324.03 L 743.05,326.31 L 742.54,328.63 L 741.91,330.92 L 742.18,333.33 L 741.50,335.65 L 740.55,337.88 L 739.68,340.12 L 739.11,342.47 L 738.82,344.88 L 737.76,347.63 L 737.31,350.55 L 736.87,353.45 L 736.63,356.38 L 735.78,359.38 L 733.94,361.90 L 732.75,364.79 L 732.64,367.91 L 731.47,370.98 L 731.06,374.23 L 729.15,376.88 L 726.82,379.18 L 725.22,382.20 L 724.32,385.50 L 721.80,387.77 L 719.17,389.91 L 718.16,390.26 L 717.21,390.74 L 716.19,391.04 L 715.16,391.32 L 714.19,391.75 L 713.14,391.88 L 712.15,392.25 L 711.13,392.53 L 710.08,392.59 L 709.02,392.68 L 707.98,392.93 L 707.10,393.55 L 706.10,393.91 L 705.16,394.40 L 704.11,394.21 L 703.05,394.39 L 701.51,394.01 L 699.93,393.94 L 698.40,394.34 L 696.84,394.58 L 695.34,394.08 L 693.82,393.64 L 692.28,393.95 L 690.75,394.34 L 689.26,394.83 L 687.71,394.68 L 686.28,394.13 L 684.81,393.69 L 683.44,393.12 L 681.95,393.10 L 680.49,392.99 L 679.07,392.64 L 677.46,394.03 L 676.40,395.87 L 675.72,397.85 L 674.79,399.74 L 673.51,401.45 L 672.44,403.30 L 671.08,404.94 L 669.73,406.60 L 668.84,408.67 L 667.49,410.48 L 665.51,411.57 L 663.91,413.17 L 662.80,415.20 L 661.20,416.87 L 659.11,417.88 L 657.34,419.37 L 655.92,417.56 L 654.03,416.23 L 652.03,415.08 L 649.74,414.70 L 648.35,412.92 L 647.02,411.09 L 644.91,410.27 L 642.78,409.54 L 640.81,408.66 L 639.28,407.14 L 637.61,405.79 L 636.48,403.96 L 635.27,402.29 L 634.08,400.61 L 632.39,399.42 L 630.88,398.01 L 629.38,396.71 L 627.73,395.61 L 626.52,394.01 L 625.90,392.09 L 625.20,390.32 L 623.96,388.86 L 622.67,387.50 L 621.59,385.94 L 620.71,384.35 L 619.68,382.84 L 618.69,381.31 L 617.96,379.63 L 617.35,377.97 L 616.65,376.35 L 615.74,374.83 L 615.01,373.22 L 613.97,372.96 L 612.94,372.64 L 611.89,372.33 L 611.05,371.63 L 609.97,371.45 L 608.96,371.02 L 608.11,370.32 L 607.14,369.81 L 606.22,369.19 L 605.17,368.86 L 604.14,368.45 L 603.27,367.76 L 602.52,366.92 L 601.53,366.35 L 600.50,365.93 L 599.47,365.47 L 597.50,363.91 L 595.80,362.05 L 594.33,360.02 L 592.76,358.06 L 590.98,356.22 L 589.03,354.54 L 588.30,352.05 L 586.89,349.87 L 585.76,347.50 L 585.38,344.90 L 583.70,342.92 L 581.96,340.99 L 581.00,338.55 L 579.33,336.54 L 578.24,334.15 L 578.04,331.53 L 575.95,330.84 L 574.29,329.40 L 573.16,327.56 L 572.01,325.73 L 570.19,324.42 L 568.28,323.24 L 567.26,321.23 L 566.39,319.16 L 565.53,317.05 L 564.03,315.36 L 562.68,313.56 L 561.26,311.83 L 560.60,309.56 L 559.09,307.75 L 557.87,305.78 L 556.70,303.79 L 557.65,300.75 L 558.94,297.83 L 558.68,294.63 L 559.15,291.46 L 560.86,288.81 L 562.03,285.87 L 562.23,282.71 L 562.98,279.65 L 564.22,276.84 L 565.43,274.01 L 566.65,271.19 L 568.11,268.49 L 569.87,266.01 L 571.27,263.32 L 573.23,260.96 L 574.43,258.14 L 589.60,251.43 L 604.06,243.30 L 613.55,229.52 L 626.47,218.88 L 641.74,218.97 L 656.99,219.75 L 672.28,217.87 L 687.53,220.11 L 695.29,232.67 L 704.67,244.09 L 716.91,252.80 L 731.54,256.23 L 732.62,269.52 L 733.52,282.83 L 738.91,295.05 Z" fill="#2c2c2c" opacity="0.8"/>
  <path d="M 687.03,203.07 L 684.20,200.88 L 681.92,198.13 L 679.37,195.61 L 676.26,193.83 L 673.54,191.47 L 671.14,188.78 L 668.47,186.35 L 665.51,184.31 L 663.56,183.47 L 661.57,182.71 L 659.54,182.10 L 657.55,181.36 L 653.35,182.90 L 649.23,184.64 L 644.80,185.38 L 640.64,187.09 L 643.07,190.02 L 645.07,193.25 L 645.68,197.04 L 647.24,200.53 L 648.51,203.16 L 649.64,205.85 L 649.98,208.76 L 650.82,211.57 L 652.21,215.01 L 654.14,218.18 L 655.00,221.79 L 656.61,225.14 L 663.88,218.82 L 669.64,211.10 L 678.27,206.94 Z" fill="#2c2c2c" opacity="0.7"/>
  <path d="M 660.07,409.56 L 662.24,411.83 L 664.06,414.40 L 666.14,416.77 L 667.69,419.51 L 669.29,421.58 L 670.44,423.92 L 671.97,426.03 L 673.51,428.12 L 674.57,431.34 L 674.97,434.71 L 676.95,437.46 L 678.38,440.54 L 679.34,442.30 L 680.33,444.05 L 681.86,445.35 L 683.32,446.73 L 683.82,448.56 L 684.46,450.34 L 685.49,451.93 L 686.83,453.28 L 690.77,453.63 L 694.70,453.26 L 698.65,453.03 L 702.43,451.83 L 702.39,449.60 L 702.22,447.38 L 702.60,445.18 L 703.02,442.99 L 702.30,440.20 L 702.04,437.34 L 701.52,434.52 L 701.14,431.67 L 701.03,429.37 L 700.82,427.08 L 701.47,424.86 L 701.79,422.57 L 701.22,418.83 L 700.63,415.09 L 699.34,411.50 L 698.73,407.75 L 698.19,403.74 L 696.73,399.96 L 695.26,396.22 L 693.60,392.56 L 686.14,398.52 L 678.30,403.95 L 669.48,407.69 Z" fill="#2c2c2c" opacity="0.7"/>
  <path d="M 752.37,335.35 L 755.28,336.57 L 758.29,337.48 L 761.44,337.42 L 764.58,337.48 L 766.53,337.66 L 768.48,337.44 L 770.41,337.65 L 772.37,337.64 L 774.02,338.73 L 775.89,339.38 L 777.61,340.35 L 779.32,341.32 L 780.40,343.28 L 781.31,345.32 L 782.56,347.18 L 784.11,348.80 L 784.13,351.18 L 784.59,353.51 L 785.53,355.68 L 786.55,357.82 L 786.97,360.21 L 787.06,362.64 L 786.99,365.07 L 787.28,367.49 L 791.04,368.28 L 794.51,369.91 L 798.31,370.01 L 802.12,369.90 L 802.77,367.40 L 803.75,365.01 L 804.14,362.43 L 805.21,360.06 L 805.45,356.93 L 806.52,353.97 L 806.60,350.86 L 806.64,347.74 L 805.97,344.14 L 805.56,340.49 L 804.66,336.93 L 804.37,333.26 L 802.44,329.24 L 800.72,325.13 L 797.59,321.92 L 795.23,318.11 L 791.18,315.33 L 786.99,312.75 L 782.85,310.10 L 779.09,306.92 L 775.54,305.03 L 771.92,303.27 L 768.34,301.44 L 764.65,299.83 L 760.07,308.24 L 755.02,316.38 L 754.48,325.98 Z" fill="#2c2c2c" opacity="0.7"/>
  <path d="M 584.75,260.94 L 582.97,261.50 L 581.19,262.06 L 579.33,261.89 L 577.46,262.02 L 575.94,260.37 L 574.32,258.83 L 572.47,257.55 L 570.51,256.47 L 567.93,253.39 L 565.56,250.16 L 564.48,246.30 L 563.11,242.53 L 560.95,239.85 L 558.33,237.61 L 555.41,235.81 L 552.51,233.98 L 550.98,233.98 L 549.48,233.64 L 547.95,233.69 L 546.43,233.54 L 543.69,236.34 L 541.11,239.30 L 538.01,241.71 L 535.23,244.48 L 536.90,246.54 L 538.45,248.68 L 540.61,250.22 L 542.89,251.56 L 543.10,253.13 L 543.70,254.60 L 544.04,256.14 L 543.98,257.73 L 543.68,259.50 L 543.06,261.19 L 542.99,262.99 L 542.91,264.78 L 545.01,268.54 L 547.80,271.83 L 548.24,276.13 L 549.68,280.20 L 554.39,283.38 L 558.49,287.31 L 562.67,291.15 L 567.40,294.29 L 572.24,286.21 L 576.14,277.65 L 580.72,269.43 Z" fill="#2c2c2c" opacity="0.7"/>
  <path d="M 401.57,364.47 L 402.73,366.42 L 403.46,368.56 L 403.53,370.81 L 403.83,373.05 L 404.92,375.18 L 405.27,377.54 L 404.63,379.85 L 404.81,382.24 L 404.29,384.60 L 404.10,387.02 L 404.13,389.44 L 404.40,391.84 L 403.49,394.20 L 402.67,396.59 L 403.07,399.13 L 402.50,401.64 L 400.80,404.10 L 399.36,406.71 L 397.75,409.21 L 396.12,411.71 L 393.18,412.92 L 390.79,415.02 L 388.99,417.63 L 388.07,420.67 L 385.31,422.10 L 383.33,424.49 L 380.61,425.96 L 378.55,428.26 L 376.27,430.39 L 373.56,431.95 L 370.63,432.99 L 367.78,434.22 L 367.26,434.77 L 366.88,435.43 L 366.20,435.73 L 365.50,436.02 L 364.90,436.44 L 364.29,436.86 L 363.73,437.33 L 363.13,437.75 L 362.51,438.19 L 361.80,438.44 L 361.13,438.81 L 360.66,439.40 L 359.98,439.73 L 359.29,440.03 L 358.65,440.45 L 358.10,440.97 L 357.09,440.88 L 356.13,440.56 L 355.43,439.84 L 354.68,439.16 L 353.84,438.72 L 352.96,438.35 L 352.14,437.86 L 351.43,437.21 L 350.62,436.75 L 349.93,436.12 L 349.14,435.63 L 348.36,435.12 L 347.64,434.55 L 346.99,433.91 L 346.22,433.41 L 345.46,432.90 L 344.30,433.21 L 343.20,433.70 L 342.00,433.76 L 340.80,433.69 L 339.57,433.66 L 338.38,433.41 L 337.26,433.94 L 336.05,434.15 L 334.84,434.41 L 333.66,434.75 L 332.42,434.65 L 331.23,434.28 L 330.03,434.64 L 328.78,434.77 L 327.54,434.56 L 326.37,434.08 L 323.75,433.98 L 321.14,433.62 L 318.49,433.56 L 315.97,432.74 L 313.38,431.65 L 311.21,429.86 L 308.43,429.48 L 305.65,429.82 L 302.93,429.18 L 300.21,428.54 L 298.27,426.46 L 295.65,425.32 L 293.62,423.30 L 291.57,421.31 L 288.99,420.05 L 286.22,419.28 L 285.54,416.52 L 285.33,413.70 L 284.05,411.18 L 282.64,408.73 L 282.19,406.11 L 281.96,403.46 L 281.61,400.82 L 280.85,398.26 L 280.48,395.66 L 279.45,393.23 L 280.07,390.70 L 280.73,388.17 L 281.22,385.82 L 281.81,383.49 L 281.81,381.09 L 282.15,378.70 L 281.77,377.92 L 281.36,377.17 L 281.24,376.29 L 280.83,375.52 L 280.26,374.82 L 280.01,373.96 L 279.71,373.12 L 279.68,372.23 L 279.80,371.32 L 279.57,370.43 L 279.04,369.70 L 278.71,368.85 L 278.61,367.97 L 278.39,367.10 L 278.04,366.28 L 277.92,365.39 L 277.86,363.48 L 278.04,361.59 L 277.60,359.73 L 276.90,357.96 L 277.04,356.04 L 276.80,354.14 L 277.09,352.22 L 276.76,350.31 L 276.64,348.35 L 276.87,346.40 L 277.31,344.49 L 277.53,342.55 L 277.26,340.51 L 277.56,338.48 L 278.65,336.74 L 279.25,334.78 L 279.02,333.95 L 278.70,333.15 L 278.61,332.29 L 278.48,331.44 L 278.34,330.54 L 278.53,329.65 L 278.08,328.87 L 277.87,327.99 L 277.55,327.14 L 277.36,326.26 L 277.32,325.35 L 277.44,324.45 L 277.30,323.55 L 277.06,322.66 L 277.03,321.74 L 277.18,320.83 L 278.84,320.73 L 280.40,320.14 L 282.01,319.80 L 283.66,319.65 L 285.26,319.91 L 286.85,319.54 L 288.42,319.26 L 290.01,319.10 L 291.51,318.51 L 293.11,318.54 L 294.62,319.00 L 296.20,319.16 L 297.61,319.73 L 299.14,319.77 L 300.65,319.91 L 302.16,319.80 L 301.40,318.94 L 300.91,317.92 L 300.62,316.81 L 300.71,315.67 L 300.27,314.60 L 299.53,313.71 L 299.52,312.57 L 299.46,311.43 L 298.84,310.45 L 298.31,309.42 L 298.48,308.26 L 298.39,307.10 L 297.80,306.10 L 297.41,305.00 L 297.30,303.83 L 297.53,302.68 L 307.75,302.71 L 317.46,299.52 L 326.69,295.36 L 336.46,292.73 L 346.09,293.33 L 355.46,295.66 L 363.88,300.33 L 372.75,304.08 L 379.34,310.61 L 387.49,315.04 L 393.46,322.25 L 396.23,331.19 L 395.47,339.72 L 397.27,348.09 L 400.02,356.12 Z" fill="#2c2c2c" opacity="0.8"/>
  <path d="M 283.07,365.95 L 281.88,366.09 L 280.69,366.26 L 279.49,366.14 L 278.29,366.15 L 276.95,364.60 L 275.40,363.26 L 273.88,361.88 L 272.52,360.35 L 271.68,359.08 L 270.64,357.98 L 269.50,356.99 L 268.30,356.06 L 267.69,353.95 L 267.01,351.86 L 265.73,350.06 L 264.77,348.07 L 264.12,346.38 L 263.53,344.67 L 262.32,343.31 L 261.32,341.80 L 260.72,340.13 L 259.99,338.52 L 259.20,336.93 L 258.13,335.52 L 256.50,333.79 L 255.31,331.73 L 254.42,329.54 L 253.39,327.42 L 252.21,326.37 L 250.87,325.53 L 249.62,324.57 L 248.32,323.69 L 246.56,322.73 L 244.94,321.57 L 243.14,320.71 L 241.28,320.00 L 240.45,320.16 L 239.62,320.21 L 238.80,320.41 L 237.97,320.46 L 237.57,322.85 L 236.70,325.12 L 235.53,327.25 L 233.94,329.08 L 235.32,329.52 L 236.70,330.00 L 238.03,330.59 L 239.42,331.02 L 239.67,331.67 L 239.84,332.35 L 240.11,332.99 L 240.25,333.68 L 240.97,334.78 L 241.38,336.04 L 242.21,337.05 L 243.28,337.82 L 243.39,338.71 L 243.32,339.60 L 243.20,340.49 L 243.05,341.36 L 243.93,342.85 L 244.45,344.50 L 244.74,346.20 L 244.57,347.93 L 245.35,349.72 L 246.06,351.55 L 246.23,353.51 L 246.71,355.42 L 247.15,357.22 L 247.45,359.05 L 247.73,360.89 L 248.20,362.68 L 250.25,364.77 L 251.75,367.27 L 252.39,370.11 L 253.41,372.84 L 255.28,374.67 L 256.89,376.73 L 258.09,379.05 L 259.15,381.44 L 262.57,383.29 L 265.61,385.71 L 268.70,388.11 L 272.23,389.76 L 274.14,383.47 L 276.46,377.32 L 278.99,371.18 Z" fill="#2c2c2c" opacity="0.7"/>
  <path d="M 398.07,364.29 L 399.31,364.25 L 400.52,364.47 L 401.74,364.50 L 402.97,364.55 L 404.08,365.75 L 405.10,367.04 L 406.13,368.33 L 406.81,369.83 L 407.07,371.46 L 407.74,372.96 L 408.52,374.40 L 409.08,375.94 L 409.65,377.89 L 409.69,379.91 L 409.73,381.93 L 410.10,383.91 L 410.65,384.67 L 411.15,385.47 L 411.78,386.16 L 412.31,386.95 L 412.06,387.98 L 411.87,389.02 L 411.98,390.07 L 412.20,391.11 L 414.38,392.60 L 416.23,394.48 L 418.36,396.01 L 420.71,397.21 L 421.51,395.77 L 422.31,394.33 L 423.44,393.14 L 424.44,391.84 L 424.93,389.57 L 424.81,387.25 L 425.44,385.04 L 425.76,382.76 L 425.83,381.17 L 426.03,379.60 L 426.57,378.09 L 427.37,376.72 L 427.19,374.30 L 427.54,371.90 L 427.54,369.50 L 427.56,367.09 L 426.72,364.32 L 425.79,361.57 L 425.44,358.70 L 424.85,355.86 L 422.37,352.72 L 419.27,350.18 L 417.05,346.86 L 414.42,343.86 L 411.52,349.86 L 408.20,355.64 L 402.87,359.65 Z" fill="#2c2c2c" opacity="0.7"/>
  <path d="M 331.03,437.87 L 332.37,440.01 L 334.13,441.82 L 335.96,443.53 L 337.90,445.12 L 339.47,446.61 L 341.13,448.00 L 342.66,449.54 L 344.02,451.22 L 345.60,452.81 L 347.54,453.94 L 348.56,455.92 L 349.92,457.68 L 351.24,458.77 L 352.67,459.71 L 353.66,461.11 L 354.85,462.35 L 356.80,463.88 L 358.55,465.64 L 359.93,467.69 L 361.22,469.81 L 362.80,470.34 L 364.23,471.21 L 365.58,472.18 L 367.01,473.03 L 368.28,473.50 L 369.62,473.66 L 370.80,474.31 L 371.85,475.17 L 372.75,475.17 L 373.63,475.37 L 374.46,475.72 L 375.22,476.21 L 377.02,474.46 L 378.68,472.56 L 380.92,471.41 L 383.22,470.41 L 382.23,469.20 L 381.15,468.07 L 380.15,466.86 L 379.10,465.71 L 377.82,464.96 L 376.68,464.02 L 375.92,462.76 L 375.01,461.59 L 373.91,460.55 L 372.61,459.79 L 371.89,458.46 L 371.06,457.21 L 371.13,456.09 L 371.00,454.98 L 370.59,453.95 L 370.20,452.90 L 369.13,451.02 L 368.22,449.06 L 367.14,447.18 L 365.83,445.47 L 365.32,443.47 L 364.46,441.61 L 363.35,439.87 L 361.98,438.35 L 360.40,436.48 L 358.70,434.72 L 357.79,432.44 L 356.85,430.18 L 355.98,427.89 L 354.69,425.79 L 352.98,424.02 L 351.74,421.89 L 346.99,426.45 L 342.29,431.06 L 337.04,435.09 Z" fill="#2c2c2c" opacity="0.7"/>
  <path d="M 336.49,431.18 L 337.19,432.33 L 337.93,433.46 L 338.89,434.41 L 339.86,435.35 L 339.41,437.37 L 339.00,439.40 L 338.77,441.46 L 338.66,443.52 L 338.18,444.87 L 338.02,446.30 L 338.16,447.71 L 338.34,449.12 L 337.47,450.24 L 336.83,451.50 L 336.62,452.89 L 336.34,454.27 L 335.30,455.39 L 334.49,456.68 L 333.77,458.02 L 332.92,459.28 L 335.03,461.02 L 337.19,462.71 L 339.00,464.76 L 340.67,466.94 L 341.92,466.52 L 343.10,465.92 L 344.27,465.32 L 345.48,464.81 L 347.16,463.70 L 348.51,462.21 L 349.90,460.75 L 351.64,459.73 L 352.48,457.28 L 353.62,454.96 L 355.15,452.86 L 357.18,451.23 L 358.25,449.08 L 358.83,446.75 L 360.00,444.64 L 361.69,442.92 L 362.31,439.07 L 363.53,435.36 L 362.78,431.53 L 362.42,427.65 L 355.82,427.01 L 349.26,428.01 L 342.73,429.02 Z" fill="#2c2c2c" opacity="0.7"/>
  <path d="M 404.09,344.61 L 406.60,343.80 L 408.99,342.72 L 411.17,341.24 L 413.06,339.39 L 415.32,337.47 L 417.43,335.38 L 419.97,333.81 L 422.84,332.94 L 424.82,331.09 L 426.93,329.37 L 428.65,327.27 L 430.03,324.92 L 431.31,322.96 L 432.78,321.14 L 433.69,318.97 L 434.13,316.66 L 434.58,315.19 L 434.67,313.65 L 434.87,312.12 L 435.38,310.67 L 436.30,308.72 L 436.94,306.65 L 437.48,304.56 L 437.61,302.40 L 437.62,301.10 L 437.53,299.80 L 437.11,298.57 L 436.60,297.37 L 434.06,297.79 L 431.52,298.24 L 428.97,297.89 L 426.46,297.29 L 426.17,298.50 L 425.76,299.67 L 425.41,300.85 L 425.19,302.07 L 424.49,302.63 L 423.85,303.25 L 423.00,303.52 L 422.25,304.02 L 420.92,305.27 L 419.77,306.70 L 419.07,308.38 L 418.44,310.09 L 417.55,311.24 L 416.62,312.36 L 415.33,313.05 L 414.17,313.93 L 412.97,314.81 L 411.70,315.58 L 410.30,316.04 L 408.88,316.48 L 407.25,316.67 L 405.63,316.91 L 404.11,317.54 L 402.52,317.97 L 400.32,318.78 L 398.08,319.50 L 395.77,319.96 L 393.53,320.67 L 395.58,326.92 L 397.56,333.19 L 401.31,338.63 Z" fill="#2c2c2c" opacity="0.7"/>
  <path d="M 289.58,391.38 L 286.28,391.16 L 282.98,391.50 L 279.77,392.28 L 276.63,393.28 L 274.27,394.06 L 272.17,395.37 L 269.96,396.48 L 267.61,397.25 L 266.00,398.23 L 264.23,398.89 L 262.61,399.85 L 261.12,401.01 L 259.32,402.07 L 257.68,403.35 L 255.71,404.05 L 253.67,404.46 L 251.79,405.74 L 249.71,406.62 L 247.72,407.72 L 245.98,409.16 L 245.41,410.25 L 244.74,411.28 L 243.88,412.15 L 243.17,413.15 L 242.04,414.42 L 240.89,415.67 L 239.61,416.80 L 238.24,417.80 L 240.19,419.44 L 241.86,421.38 L 243.96,422.82 L 246.09,424.21 L 246.97,424.20 L 247.85,424.18 L 248.72,424.02 L 249.57,423.81 L 251.25,423.33 L 252.87,422.68 L 254.24,421.60 L 255.49,420.39 L 256.62,420.43 L 257.72,420.21 L 258.84,420.24 L 259.96,420.26 L 261.56,419.70 L 263.25,419.56 L 264.93,419.39 L 266.61,419.51 L 268.82,419.01 L 271.08,418.79 L 273.22,418.07 L 275.38,417.39 L 277.49,417.18 L 279.59,417.49 L 281.61,416.90 L 283.57,416.13 L 285.16,416.78 L 286.86,417.05 L 288.56,417.23 L 290.24,417.54 L 288.67,411.09 L 287.86,404.51 L 289.42,398.04 Z" fill="#2c2c2c" opacity="0.7"/>
  <path d="M 513.53,143.45 L 513.50,145.53 L 513.42,147.62 L 513.38,149.73 L 512.75,151.74 L 512.67,153.84 L 512.43,155.94 L 511.22,157.71 L 510.78,159.81 L 509.19,161.29 L 508.24,163.24 L 508.20,165.39 L 507.66,167.48 L 506.64,169.30 L 505.21,170.82 L 504.58,172.81 L 503.48,174.59 L 501.37,175.84 L 499.87,177.77 L 497.63,178.63 L 495.34,179.37 L 493.14,179.82 L 491.04,180.60 L 488.86,181.19 L 486.95,182.42 L 484.80,182.34 L 482.65,182.13 L 480.55,182.72 L 478.65,183.77 L 476.70,183.32 L 474.71,183.41 L 472.72,183.30 L 470.75,183.55 L 470.48,184.00 L 470.40,184.52 L 470.15,184.97 L 469.93,185.43 L 469.66,185.88 L 469.45,186.35 L 469.19,186.81 L 469.01,187.30 L 468.97,187.85 L 468.75,188.36 L 468.37,188.76 L 467.98,189.15 L 467.53,189.48 L 467.21,189.93 L 467.08,190.47 L 466.85,190.97 L 464.65,191.16 L 462.70,192.19 L 460.79,193.29 L 458.61,193.59 L 456.37,193.79 L 454.23,194.47 L 451.98,194.18 L 449.78,194.75 L 447.48,195.13 L 445.16,195.39 L 442.98,194.49 L 440.62,194.32 L 438.33,193.62 L 436.20,192.52 L 433.80,192.71 L 431.43,192.23 L 430.58,191.92 L 429.66,191.93 L 428.87,191.50 L 428.02,191.20 L 427.24,190.69 L 426.48,190.16 L 425.57,189.99 L 424.64,189.94 L 423.71,189.76 L 422.79,189.59 L 421.97,189.11 L 421.31,188.43 L 420.59,187.82 L 419.72,187.47 L 418.89,187.06 L 418.04,186.68 L 417.26,185.73 L 416.62,184.67 L 415.83,183.69 L 415.47,182.48 L 415.08,181.32 L 414.34,180.35 L 414.02,179.17 L 413.33,178.16 L 412.95,176.99 L 412.98,175.76 L 412.22,174.81 L 411.62,173.76 L 411.50,172.60 L 411.17,171.48 L 410.60,170.46 L 410.33,169.32 L 409.38,168.17 L 408.87,166.78 L 407.90,165.66 L 406.76,164.74 L 405.86,163.53 L 405.41,162.09 L 404.64,160.81 L 403.66,159.68 L 403.49,158.14 L 402.74,156.77 L 401.97,155.45 L 401.08,154.21 L 400.31,152.83 L 399.48,151.49 L 398.98,149.97 L 399.08,148.37 L 399.33,147.75 L 399.80,147.28 L 400.12,146.71 L 400.54,146.22 L 401.04,145.78 L 401.30,145.18 L 401.80,144.77 L 402.08,144.18 L 401.64,143.05 L 401.55,141.85 L 401.89,140.70 L 401.96,139.50 L 401.62,138.33 L 401.47,137.12 L 401.97,136.00 L 402.25,134.81 L 402.65,133.64 L 403.24,132.57 L 402.93,131.37 L 402.94,130.14 L 403.70,129.15 L 404.04,127.96 L 403.79,126.74 L 404.04,125.52 L 404.90,125.12 L 405.85,125.08 L 406.64,124.59 L 407.44,124.10 L 408.33,123.92 L 409.14,123.53 L 410.01,123.28 L 410.85,122.96 L 411.67,122.63 L 412.55,122.51 L 413.42,122.36 L 414.26,122.09 L 415.09,121.89 L 415.94,121.74 L 416.80,121.65 L 417.64,121.48 L 417.98,120.64 L 418.73,120.12 L 419.45,119.60 L 419.86,118.81 L 420.37,118.10 L 421.04,117.55 L 421.70,117.00 L 422.27,116.35 L 423.02,115.65 L 423.92,115.15 L 424.35,114.22 L 425.01,113.43 L 425.53,112.53 L 426.16,111.70 L 427.01,111.10 L 428.01,110.78 L 428.67,109.99 L 429.28,109.15 L 430.27,108.83 L 431.22,108.43 L 431.92,107.69 L 432.82,107.23 L 433.66,106.66 L 434.63,106.39 L 435.12,105.03 L 435.97,103.87 L 435.71,102.46 L 435.71,101.03 L 436.40,99.78 L 436.87,98.42 L 437.23,97.04 L 437.51,95.64 L 438.44,94.46 L 438.86,93.02 L 439.58,91.72 L 440.02,90.30 L 440.45,88.79 L 441.42,87.56 L 442.47,86.43 L 443.25,85.09 L 443.77,86.08 L 444.59,86.86 L 444.92,87.92 L 445.52,88.87 L 445.74,89.96 L 446.26,90.95 L 447.09,91.71 L 447.60,92.72 L 448.24,93.61 L 448.57,94.66 L 448.87,95.72 L 449.47,96.64 L 450.03,97.57 L 450.51,98.54 L 450.96,99.54 L 451.15,100.62 L 450.81,99.65 L 450.84,98.63 L 451.06,97.65 L 451.23,96.66 L 451.57,95.69 L 451.89,94.70 L 451.47,93.74 L 451.41,92.70 L 451.65,91.72 L 451.81,90.73 L 451.86,89.72 L 451.68,88.73 L 451.86,87.75 L 452.10,86.77 L 452.22,85.76 L 452.04,84.77 L 452.77,85.09 L 453.38,85.60 L 454.01,86.06 L 454.68,86.47 L 455.27,86.96 L 455.94,87.36 L 456.43,87.97 L 457.15,88.28 L 462.35,89.62 L 467.55,90.98 L 472.82,92.13 L 478.21,92.25 L 482.37,95.77 L 487.29,98.12 L 491.35,101.80 L 496.35,104.02 L 500.53,107.66 L 504.01,111.98 L 507.04,116.66 L 508.79,121.95 L 511.28,127.02 L 513.62,132.15 L 512.87,137.80 Z" fill="#2c2c2c" opacity="0.8"/>
  <path d="M 490.59,111.10 L 491.92,109.94 L 493.36,108.91 L 494.64,107.70 L 495.77,106.34 L 497.72,104.36 L 500.11,102.96 L 501.95,100.90 L 504.12,99.20 L 504.67,97.22 L 505.40,95.31 L 506.38,93.51 L 507.18,91.63 L 507.89,89.91 L 508.31,88.11 L 508.35,86.25 L 508.23,84.40 L 508.16,82.77 L 507.98,81.14 L 508.05,79.49 L 507.77,77.87 L 505.69,78.07 L 503.61,78.08 L 501.52,78.09 L 499.46,78.42 L 498.97,79.59 L 498.64,80.81 L 498.04,81.94 L 497.66,83.15 L 496.97,84.27 L 496.44,85.46 L 495.70,86.55 L 494.86,87.55 L 493.97,88.54 L 492.93,89.36 L 491.95,90.24 L 491.06,91.22 L 490.11,90.93 L 489.12,90.85 L 488.13,90.94 L 487.15,90.95 L 485.17,91.57 L 483.13,91.95 L 481.60,93.36 L 479.75,94.33 L 481.48,99.11 L 483.55,103.76 L 486.72,107.77 Z" fill="#2c2c2c" opacity="0.7"/>
  <path d="M 417.36,114.00 L 416.11,113.36 L 414.86,112.72 L 413.57,112.18 L 412.38,111.42 L 410.73,109.15 L 408.79,107.11 L 406.40,105.66 L 403.99,104.23 L 402.42,103.80 L 400.96,103.06 L 399.39,102.66 L 397.76,102.59 L 396.37,101.83 L 394.84,101.43 L 393.29,101.16 L 391.73,101.05 L 389.93,100.88 L 388.13,100.93 L 386.41,100.38 L 384.71,99.79 L 382.97,99.88 L 381.24,100.00 L 379.61,100.64 L 377.86,100.80 L 377.18,101.16 L 376.54,101.58 L 376.04,102.16 L 375.56,102.76 L 374.68,103.20 L 373.78,103.62 L 372.82,103.87 L 371.82,103.87 L 372.00,105.75 L 372.34,107.61 L 372.72,109.45 L 372.92,111.33 L 373.78,111.43 L 374.63,111.63 L 375.48,111.82 L 376.35,111.82 L 377.66,111.33 L 379.03,111.06 L 380.40,110.80 L 381.79,110.70 L 382.46,110.96 L 383.12,111.25 L 383.78,111.55 L 384.37,111.98 L 385.21,112.35 L 386.00,112.83 L 386.75,113.36 L 387.33,114.08 L 388.50,114.83 L 389.67,115.57 L 390.96,116.10 L 392.14,116.83 L 393.62,117.44 L 395.04,118.19 L 396.48,118.91 L 397.76,119.90 L 397.88,120.75 L 397.90,121.62 L 398.17,122.45 L 398.32,123.30 L 400.28,124.70 L 402.32,125.98 L 403.86,127.84 L 405.21,129.84 L 407.74,125.50 L 411.11,121.78 L 414.21,117.86 Z" fill="#2c2c2c" opacity="0.7"/>
  <path d="M 437.75,89.73 L 436.11,89.28 L 434.47,88.86 L 432.81,88.42 L 431.09,88.44 L 430.00,88.25 L 428.91,88.04 L 427.81,88.18 L 426.69,88.10 L 425.82,87.18 L 424.75,86.49 L 423.61,85.96 L 422.48,85.41 L 421.73,84.98 L 420.93,84.62 L 420.20,84.15 L 419.42,83.78 L 417.34,84.53 L 415.18,84.95 L 413.09,85.65 L 410.92,86.01 L 411.14,87.55 L 411.46,89.07 L 412.00,90.54 L 412.85,91.85 L 413.58,93.27 L 414.45,94.60 L 415.06,96.07 L 415.81,97.48 L 417.19,99.34 L 418.93,100.86 L 420.86,102.13 L 422.75,103.44 L 424.75,104.25 L 426.74,105.09 L 428.35,106.52 L 429.85,108.07 L 431.33,103.28 L 433.66,98.84 L 436.04,94.44 Z" fill="#2c2c2c" opacity="0.7"/>
  <path d="M 420.69,103.81 L 418.53,102.92 L 416.43,101.90 L 414.10,101.89 L 411.77,101.68 L 410.60,101.69 L 409.43,101.76 L 408.27,102.00 L 407.17,102.42 L 405.70,101.88 L 404.16,101.58 L 402.68,101.07 L 401.19,100.59 L 400.14,100.57 L 399.08,100.65 L 398.03,100.59 L 397.01,100.28 L 395.51,101.92 L 394.07,103.63 L 393.25,105.70 L 392.42,107.77 L 393.40,108.64 L 394.36,109.53 L 395.39,110.35 L 396.43,111.15 L 397.28,112.11 L 397.95,113.22 L 398.84,114.16 L 399.94,114.84 L 402.17,115.15 L 404.28,115.94 L 406.03,117.35 L 408.00,118.43 L 409.15,119.46 L 410.23,120.57 L 411.54,121.37 L 412.85,122.17 L 414.60,117.45 L 417.36,113.24 L 419.45,108.68 Z" fill="#2c2c2c" opacity="0.7"/>
  <path d="M 499.85,119.22 L 502.20,117.75 L 504.62,116.40 L 506.08,114.02 L 507.99,111.99 L 508.73,110.14 L 509.61,108.35 L 510.72,106.70 L 511.80,105.02 L 512.33,102.83 L 512.61,100.60 L 513.93,98.77 L 514.90,96.73 L 515.07,94.93 L 514.86,93.13 L 515.23,91.36 L 515.23,89.54 L 514.85,88.89 L 514.39,88.28 L 514.09,87.58 L 513.83,86.86 L 513.69,86.20 L 513.59,85.54 L 513.54,84.87 L 513.54,84.19 L 513.74,83.63 L 513.88,83.05 L 514.03,82.48 L 514.18,81.90 L 515.31,81.20 L 516.49,80.56 L 517.82,80.35 L 519.06,79.83 L 518.01,78.23 L 517.28,76.46 L 516.17,74.89 L 514.68,73.69 L 514.12,73.53 L 513.60,73.25 L 513.02,73.18 L 512.47,72.97 L 511.12,73.93 L 509.89,75.05 L 508.31,75.53 L 506.72,76.01 L 505.53,77.39 L 504.76,79.05 L 503.88,80.63 L 502.65,81.98 L 502.29,83.93 L 501.84,85.87 L 501.68,87.85 L 501.48,89.83 L 500.91,90.84 L 500.40,91.88 L 500.13,93.01 L 499.82,94.12 L 499.19,94.95 L 498.56,95.79 L 497.73,96.43 L 496.92,97.09 L 495.97,98.26 L 494.93,99.34 L 493.98,100.52 L 492.84,101.52 L 491.77,101.75 L 490.70,102.03 L 489.62,102.28 L 488.61,102.72 L 491.85,106.55 L 495.10,110.38 L 497.59,114.74 Z" fill="#2c2c2c" opacity="0.7"/>
  <path d="M 410.01,119.30 L 407.18,119.24 L 404.43,118.53 L 401.66,119.04 L 398.89,119.50 L 397.50,119.87 L 396.25,120.58 L 395.16,121.50 L 393.87,122.15 L 392.59,122.38 L 391.36,122.83 L 390.17,123.36 L 388.93,123.77 L 388.04,124.26 L 387.12,124.68 L 386.10,124.71 L 385.11,124.90 L 383.79,124.20 L 382.48,123.52 L 381.18,122.80 L 379.89,122.07 L 378.49,123.62 L 377.03,125.12 L 375.68,126.74 L 374.79,128.64 L 375.60,129.81 L 376.27,131.07 L 377.41,131.94 L 378.28,133.08 L 380.10,134.42 L 382.10,135.49 L 384.26,136.14 L 386.49,136.51 L 388.57,136.55 L 390.58,137.08 L 392.63,137.24 L 394.69,137.43 L 396.75,136.67 L 398.93,136.43 L 401.10,136.80 L 403.29,136.57 L 404.11,137.33 L 404.98,138.03 L 406.01,138.48 L 406.98,139.04 L 406.92,133.98 L 406.84,128.92 L 408.90,124.27 Z" fill="#2c2c2c" opacity="0.7"/>
  <path d="M 496.21,185.47 L 497.28,184.93 L 498.41,184.57 L 499.49,184.07 L 500.50,183.44 L 501.81,183.36 L 503.12,183.18 L 504.43,183.30 L 505.75,183.24 L 506.80,183.07 L 507.86,183.09 L 508.90,183.30 L 509.92,183.57 L 511.43,184.47 L 513.06,185.15 L 514.41,186.28 L 515.91,187.21 L 517.70,187.82 L 519.45,188.55 L 521.21,189.27 L 523.03,189.79 L 524.70,189.55 L 526.38,189.64 L 528.05,189.78 L 529.72,189.56 L 530.09,189.08 L 530.33,188.53 L 530.80,188.16 L 531.28,187.80 L 532.42,188.14 L 533.61,188.18 L 534.79,188.27 L 535.97,188.24 L 535.88,186.31 L 535.34,184.46 L 535.78,182.59 L 536.08,180.69 L 535.59,180.20 L 535.12,179.68 L 534.53,179.31 L 533.87,179.08 L 532.22,178.95 L 530.58,178.67 L 528.97,179.03 L 527.32,179.19 L 526.61,178.89 L 525.87,178.66 L 525.25,178.20 L 524.67,177.70 L 524.26,176.98 L 523.76,176.32 L 523.20,175.71 L 522.57,175.18 L 521.74,174.31 L 521.07,173.32 L 520.21,172.49 L 519.43,171.58 L 517.46,170.56 L 515.70,169.22 L 513.68,168.30 L 511.65,167.45 L 509.64,166.55 L 507.50,166.04 L 505.29,165.93 L 503.19,165.22 L 500.66,166.08 L 498.01,166.36 L 495.36,166.12 L 492.73,165.81 L 494.44,170.54 L 495.57,175.44 L 496.33,180.43 Z" fill="#2c2c2c" opacity="0.7"/>
  <path d="M 29.94,55.16 L 30.15,55.75 L 30.21,56.38 L 29.98,56.95 L 29.67,57.49 L 29.66,58.15 L 29.84,58.79 L 29.29,59.16 L 28.91,59.70 L 28.66,60.23 L 28.33,60.72 L 27.94,61.16 L 27.71,61.70 L 27.26,62.16 L 26.64,62.30 L 26.48,62.90 L 26.10,63.39 L 26.12,63.93 L 26.02,64.46 L 25.82,64.99 L 25.83,65.55 L 25.52,66.06 L 25.52,66.65 L 25.52,67.28 L 25.10,67.76 L 24.26,68.05 L 23.45,68.39 L 22.49,68.18 L 21.73,68.82 L 20.88,69.06 L 19.99,69.02 L 19.11,69.18 L 18.23,69.00 L 17.66,68.88 L 17.10,68.74 L 16.55,68.58 L 16.01,68.39 L 15.40,68.22 L 14.82,68.47 L 14.43,68.01 L 13.96,67.63 L 13.50,67.30 L 12.94,67.22 L 12.47,66.94 L 12.07,66.56 L 11.85,66.02 L 11.46,65.60 L 10.90,65.48 L 10.39,65.21 L 9.93,64.90 L 9.44,64.62 L 9.37,64.04 L 8.97,63.62 L 8.19,63.74 L 7.39,63.81 L 6.59,63.85 L 5.76,63.85 L 5.79,63.06 L 5.57,62.31 L 5.41,61.56 L 5.55,60.81 L 5.54,60.08 L 5.68,59.37 L 5.56,58.63 L 5.96,58.00 L 6.00,57.22 L 6.09,56.45 L 6.22,55.69 L 6.39,54.96 L 6.27,54.30 L 5.92,53.73 L 5.74,53.07 L 5.57,52.41 L 5.74,51.67 L 5.36,51.02 L 5.28,50.29 L 5.30,49.56 L 5.49,49.03 L 5.95,48.70 L 6.11,48.14 L 6.65,47.91 L 6.85,47.36 L 7.39,47.18 L 7.95,47.04 L 8.18,46.52 L 9.60,44.94 L 11.25,43.60 L 13.41,43.50 L 15.36,42.56 L 17.25,43.06 L 19.15,43.57 L 21.13,44.15 L 23.07,43.47 L 23.50,45.44 L 25.02,46.78 L 27.03,47.00 L 28.50,48.41 L 29.32,49.97 L 29.76,51.67 L 29.58,53.43 Z" fill="#2c2c2c" opacity="0.40395683668175686"/>
  <path d="M 334.69,127.01 L 334.56,127.70 L 334.88,128.32 L 334.82,129.01 L 334.91,129.69 L 334.63,130.36 L 334.75,131.08 L 334.91,131.86 L 334.40,132.47 L 333.97,133.25 L 333.52,134.03 L 333.52,134.54 L 333.30,135.01 L 332.91,135.36 L 332.39,135.44 L 331.63,135.96 L 331.05,136.68 L 330.08,136.89 L 329.51,137.70 L 328.97,137.61 L 328.44,137.75 L 327.92,137.59 L 327.38,137.63 L 326.87,137.51 L 326.45,137.21 L 325.94,137.14 L 325.43,137.16 L 324.59,136.75 L 323.73,136.37 L 322.99,135.91 L 322.33,135.33 L 321.71,136.11 L 321.20,136.32 L 321.01,136.84 L 320.59,137.15 L 320.25,137.54 L 319.98,138.05 L 319.42,138.18 L 318.78,138.01 L 318.36,137.51 L 317.88,137.13 L 317.39,136.74 L 317.14,136.11 L 316.51,135.88 L 316.18,135.37 L 315.74,134.95 L 315.55,134.14 L 314.96,133.55 L 314.57,132.86 L 314.40,132.08 L 313.86,131.42 L 314.06,130.59 L 313.80,129.86 L 313.94,129.10 L 313.50,128.95 L 313.07,128.79 L 312.63,128.61 L 312.20,128.41 L 312.97,127.96 L 313.76,127.56 L 314.56,127.21 L 315.37,126.91 L 314.90,126.12 L 314.49,125.25 L 314.17,124.32 L 313.87,123.86 L 313.94,123.31 L 314.83,121.56 L 316.50,120.54 L 317.56,118.96 L 318.89,117.61 L 320.79,117.86 L 322.70,118.00 L 324.31,116.89 L 326.21,116.47 L 327.36,117.98 L 328.81,119.20 L 330.70,119.44 L 332.42,120.25 L 333.19,121.99 L 334.59,123.28 L 334.40,125.15 Z" fill="#2c2c2c" opacity="0.5431546659172106"/>
  <path d="M 143.58,402.09 L 143.47,402.34 L 143.33,402.57 L 143.18,402.78 L 143.00,402.96 L 143.11,403.19 L 143.20,403.43 L 143.26,403.69 L 143.30,403.97 L 142.98,403.97 L 142.69,403.93 L 142.40,403.86 L 142.14,403.75 L 141.91,403.88 L 141.67,403.97 L 141.41,404.02 L 141.15,404.05 L 140.81,404.28 L 140.39,404.45 L 139.91,404.54 L 139.39,404.53 L 139.33,404.22 L 139.31,403.92 L 139.33,403.63 L 139.37,403.36 L 139.29,403.33 L 139.21,403.30 L 139.13,403.27 L 139.05,403.23 L 138.92,403.24 L 138.78,403.25 L 138.64,403.24 L 138.50,403.23 L 138.60,402.96 L 138.73,402.71 L 138.88,402.49 L 139.05,402.29 L 138.87,402.24 L 138.70,402.17 L 138.54,402.09 L 138.37,402.00 L 138.43,401.48 L 138.55,400.97 L 138.90,400.58 L 139.23,400.17 L 139.76,400.06 L 140.29,400.17 L 140.69,399.82 L 141.10,399.48 L 142.01,399.85 L 142.88,400.29 L 143.29,400.63 L 143.67,401.02 L 143.48,401.54 Z" fill="#2c2c2c" opacity="0.6218766424512544"/>
  <path d="M 203.89,260.55 L 203.79,261.18 L 203.49,261.74 L 202.96,262.12 L 202.86,262.76 L 202.45,263.16 L 202.05,263.57 L 201.47,263.66 L 201.12,264.13 L 200.53,264.85 L 199.78,265.46 L 199.36,265.76 L 198.87,265.94 L 198.42,266.32 L 197.84,266.24 L 196.95,266.05 L 196.12,265.73 L 195.35,265.29 L 194.67,264.73 L 194.64,264.19 L 194.66,263.67 L 194.74,263.17 L 194.87,262.70 L 194.82,262.62 L 194.77,262.53 L 194.73,262.45 L 194.69,262.36 L 194.11,261.99 L 193.57,261.50 L 193.09,260.89 L 192.70,260.17 L 192.68,259.66 L 192.71,259.15 L 192.78,258.64 L 192.90,258.13 L 193.10,257.85 L 193.32,257.59 L 193.55,257.34 L 193.79,257.11 L 194.05,256.98 L 194.32,256.88 L 194.58,256.79 L 194.85,256.71 L 195.45,256.28 L 196.08,255.88 L 196.68,255.39 L 197.46,255.35 L 198.23,255.40 L 198.98,255.29 L 199.70,255.57 L 200.47,255.64 L 200.94,256.27 L 201.62,256.67 L 202.36,256.96 L 202.88,257.56 L 203.24,258.28 L 203.63,258.97 L 203.68,259.77 Z" fill="#2c2c2c" opacity="0.45696078923516337"/>
  <path d="M 603.11,451.37 L 602.67,451.74 L 602.55,452.31 L 602.26,452.75 L 601.93,453.17 L 601.67,453.62 L 601.25,453.94 L 600.53,454.62 L 600.68,455.22 L 601.06,455.72 L 601.04,456.35 L 600.75,456.90 L 600.83,457.53 L 600.90,458.16 L 600.49,458.68 L 600.47,459.34 L 600.27,460.03 L 599.72,460.48 L 599.75,461.16 L 599.64,461.84 L 599.47,462.54 L 599.00,463.08 L 598.45,463.56 L 598.25,464.27 L 597.67,464.12 L 597.08,464.22 L 596.50,464.27 L 595.95,464.07 L 595.46,463.70 L 594.87,463.84 L 594.41,463.51 L 593.85,463.52 L 593.31,463.65 L 592.87,463.96 L 592.32,464.06 L 591.84,464.33 L 591.35,464.65 L 590.77,464.61 L 590.25,464.85 L 589.67,464.80 L 588.83,464.55 L 588.01,464.25 L 587.23,463.90 L 586.49,463.51 L 585.65,463.40 L 585.18,462.70 L 584.52,462.33 L 584.02,461.76 L 583.32,461.42 L 583.02,460.71 L 582.46,460.24 L 582.18,459.57 L 581.62,459.89 L 580.99,459.84 L 580.36,459.88 L 579.75,460.00 L 579.12,460.32 L 578.46,460.04 L 577.80,460.13 L 577.15,459.97 L 577.44,459.30 L 577.77,458.65 L 578.12,458.03 L 578.49,457.42 L 578.00,457.29 L 577.57,457.01 L 577.08,456.82 L 576.65,456.51 L 576.21,456.20 L 575.75,455.92 L 575.20,455.73 L 574.88,455.24 L 574.63,454.74 L 574.58,454.18 L 574.70,453.60 L 574.37,453.10 L 574.24,452.56 L 574.22,452.00 L 574.19,451.45 L 574.16,450.89 L 574.47,447.80 L 574.96,444.73 L 576.94,442.30 L 579.46,440.44 L 582.05,438.60 L 583.91,436.02 L 586.87,437.49 L 590.12,436.89 L 592.62,438.05 L 595.34,438.46 L 597.58,440.01 L 599.76,441.65 L 600.41,444.32 L 602.46,446.16 L 601.91,448.87 Z" fill="#2c2c2c" opacity="0.5761632478070362"/>
  <path d="M 458.98,544.13 L 458.84,544.49 L 458.69,544.84 L 458.52,545.17 L 458.33,545.49 L 458.61,546.42 L 458.63,546.93 L 458.74,547.43 L 458.79,547.97 L 458.71,548.51 L 458.89,549.12 L 458.51,549.64 L 458.03,549.59 L 457.56,549.52 L 457.11,549.42 L 456.67,549.30 L 456.35,549.81 L 456.18,550.40 L 455.94,551.00 L 455.46,551.45 L 455.14,552.09 L 454.51,552.42 L 453.95,552.86 L 453.35,553.25 L 452.96,553.21 L 452.56,553.15 L 452.18,553.08 L 451.80,552.99 L 451.56,553.00 L 451.32,553.01 L 451.07,553.00 L 450.83,553.00 L 450.45,552.53 L 450.01,552.11 L 449.89,551.51 L 449.37,551.17 L 449.00,550.74 L 448.92,550.19 L 448.95,549.65 L 448.65,549.20 L 448.31,549.13 L 447.97,549.04 L 447.63,548.93 L 447.30,548.80 L 446.72,548.71 L 446.13,548.57 L 445.54,548.37 L 444.95,548.11 L 444.62,547.75 L 444.30,547.36 L 444.01,546.95 L 443.73,546.52 L 443.74,544.71 L 443.76,542.90 L 444.88,541.41 L 445.25,539.59 L 446.62,538.59 L 447.87,537.42 L 449.49,536.91 L 451.12,536.41 L 452.62,537.06 L 453.78,538.22 L 455.34,538.75 L 456.97,538.63 L 458.12,539.69 L 458.93,541.03 L 458.80,542.58 Z" fill="#2c2c2c" opacity="0.6525338309576703"/>
  <path d="M 520.89,74.51 L 520.64,75.18 L 520.84,75.86 L 520.62,76.52 L 520.64,77.21 L 520.59,77.91 L 520.28,78.53 L 519.91,79.12 L 519.77,79.80 L 519.11,80.18 L 518.63,80.77 L 518.18,81.39 L 517.42,81.53 L 516.77,81.77 L 516.16,82.11 L 515.47,82.09 L 514.90,82.48 L 514.40,83.10 L 513.61,83.08 L 512.94,83.27 L 512.27,83.48 L 511.60,83.67 L 510.91,83.68 L 510.23,83.68 L 509.55,83.67 L 508.98,83.93 L 508.38,84.15 L 507.75,84.33 L 507.09,84.47 L 506.80,84.00 L 506.53,83.52 L 506.30,83.04 L 506.11,82.55 L 505.40,82.82 L 504.66,83.03 L 503.87,83.18 L 503.05,83.26 L 502.27,82.93 L 501.64,82.38 L 501.22,81.55 L 500.35,81.26 L 499.52,80.82 L 499.23,79.93 L 498.51,79.34 L 498.31,78.42 L 497.31,76.01 L 497.40,73.41 L 498.96,71.28 L 499.21,68.65 L 501.65,67.98 L 503.55,66.31 L 505.44,64.71 L 507.26,63.05 L 509.58,63.85 L 511.96,64.48 L 514.25,65.47 L 516.74,65.61 L 518.68,67.38 L 520.53,69.26 L 521.49,71.83 Z" fill="#2c2c2c" opacity="0.76508350600461"/>
  <path d="M 664.41,554.05 L 664.02,554.78 L 664.01,555.60 L 663.85,556.39 L 663.37,557.03 L 662.88,557.62 L 662.50,558.27 L 662.06,558.87 L 661.46,559.32 L 661.38,559.84 L 661.25,560.36 L 661.09,560.89 L 660.89,561.41 L 660.31,561.23 L 659.75,561.44 L 659.23,561.23 L 658.67,561.32 L 658.19,561.14 L 657.68,561.06 L 656.78,560.68 L 656.17,560.98 L 655.56,561.29 L 654.95,561.77 L 654.18,561.66 L 653.41,561.47 L 652.68,561.75 L 651.93,561.44 L 651.12,561.54 L 650.41,561.19 L 649.73,560.77 L 649.09,560.29 L 648.49,559.74 L 648.21,559.20 L 647.89,558.68 L 647.80,558.07 L 647.46,557.56 L 647.59,556.92 L 647.19,556.41 L 646.95,555.85 L 647.09,555.25 L 647.49,554.92 L 647.91,554.62 L 648.33,554.35 L 648.77,554.11 L 649.00,552.72 L 650.04,551.76 L 650.25,550.43 L 650.04,549.09 L 651.65,549.36 L 653.15,548.72 L 654.40,547.70 L 655.03,546.22 L 656.51,546.83 L 658.10,547.02 L 659.72,547.16 L 661.13,547.96 L 662.14,549.47 L 662.24,551.29 L 663.00,552.92 Z" fill="#2c2c2c" opacity="0.5439636947032953"/>
  <path d="M 793.74,254.46 L 793.41,254.91 L 793.05,255.33 L 792.68,255.71 L 792.29,256.06 L 792.10,256.99 L 792.33,257.91 L 792.25,258.41 L 792.32,258.92 L 792.08,259.37 L 791.88,259.84 L 791.64,260.34 L 791.61,260.89 L 791.22,261.27 L 790.92,261.73 L 790.60,262.19 L 790.26,262.65 L 789.82,263.01 L 789.43,263.43 L 788.72,262.95 L 788.06,262.42 L 787.46,261.85 L 786.91,261.25 L 786.65,261.43 L 786.37,261.61 L 786.08,261.78 L 785.77,261.93 L 785.47,262.55 L 785.10,263.15 L 784.69,263.74 L 784.22,264.31 L 783.55,264.13 L 782.93,263.82 L 782.35,263.51 L 781.77,263.18 L 781.17,262.90 L 780.74,262.39 L 780.42,261.83 L 779.86,261.50 L 779.24,261.61 L 778.70,261.28 L 778.07,261.23 L 777.54,260.88 L 776.96,260.60 L 776.39,260.31 L 775.88,259.86 L 775.27,259.55 L 775.17,258.98 L 775.45,258.48 L 775.39,257.92 L 775.73,257.47 L 775.72,256.92 L 776.11,256.54 L 776.58,255.70 L 776.53,253.82 L 776.03,252.01 L 777.67,250.93 L 778.34,249.08 L 779.89,248.27 L 781.18,247.11 L 782.64,246.09 L 784.41,245.85 L 786.19,246.17 L 787.54,247.38 L 789.35,247.24 L 790.94,248.11 L 790.91,249.93 L 791.54,251.63 L 792.35,253.27 Z" fill="#2c2c2c" opacity="0.7901237101247477"/>
  <path d="M 171.46,397.26 L 171.22,397.96 L 171.41,398.67 L 171.23,399.36 L 171.17,400.07 L 170.76,400.69 L 170.72,401.42 L 170.32,402.03 L 170.08,402.71 L 169.43,403.36 L 168.64,403.84 L 167.89,404.29 L 167.09,404.63 L 166.17,404.47 L 165.48,405.10 L 164.70,405.24 L 163.90,405.24 L 163.62,405.75 L 163.06,405.89 L 162.65,406.29 L 162.11,406.45 L 161.63,406.81 L 161.04,406.90 L 160.50,407.16 L 159.89,407.22 L 159.69,406.91 L 159.50,406.61 L 159.33,406.30 L 159.17,405.98 L 158.52,406.11 L 157.97,405.75 L 157.42,405.43 L 156.79,405.34 L 156.33,404.85 L 155.66,404.78 L 154.99,404.62 L 154.60,404.05 L 154.17,403.37 L 154.24,402.56 L 154.23,401.84 L 154.16,401.13 L 153.93,400.42 L 154.33,399.79 L 154.62,399.21 L 154.71,398.58 L 154.71,397.80 L 154.80,397.04 L 154.97,396.30 L 155.22,395.60 L 155.70,394.44 L 156.15,393.28 L 156.73,392.17 L 157.42,391.14 L 158.45,389.98 L 159.52,388.88 L 161.10,388.47 L 162.60,389.10 L 164.12,389.45 L 165.68,389.65 L 167.12,390.29 L 168.36,391.27 L 169.75,392.44 L 171.11,393.64 L 171.05,395.47 Z" fill="#2c2c2c" opacity="0.4796491479808837"/>
  <path d="M 177.86,298.04 L 177.57,298.65 L 177.52,299.33 L 177.41,299.99 L 177.05,300.56 L 176.80,301.15 L 176.48,301.70 L 176.23,302.29 L 175.80,302.76 L 175.01,303.26 L 174.68,304.14 L 174.29,305.00 L 173.40,305.30 L 172.84,305.96 L 172.00,306.22 L 171.29,306.62 L 170.53,306.89 L 169.74,307.40 L 168.90,307.85 L 168.02,308.21 L 167.11,308.50 L 166.58,308.44 L 166.12,308.70 L 165.60,308.67 L 165.10,308.80 L 164.60,308.92 L 164.09,308.80 L 163.58,308.70 L 163.07,308.71 L 162.49,309.02 L 161.86,309.23 L 161.28,309.67 L 160.54,309.61 L 159.87,309.94 L 159.12,309.84 L 158.38,310.05 L 157.63,309.89 L 157.05,309.09 L 156.11,308.79 L 155.41,308.17 L 154.75,307.51 L 154.22,306.74 L 153.59,306.05 L 153.06,305.28 L 152.64,304.45 L 152.36,303.73 L 151.89,303.12 L 151.26,302.55 L 151.30,301.70 L 150.82,301.03 L 150.86,300.20 L 150.44,299.48 L 150.58,298.66 L 150.36,297.94 L 150.49,297.20 L 150.75,296.47 L 150.55,295.72 L 150.78,295.00 L 150.77,294.25 L 150.71,293.47 L 151.13,292.80 L 151.73,292.71 L 152.14,292.27 L 152.75,292.29 L 153.17,291.84 L 153.68,291.67 L 154.19,291.52 L 154.65,291.16 L 155.21,291.29 L 155.07,290.66 L 154.98,290.01 L 154.91,289.34 L 154.88,288.66 L 156.87,287.73 L 159.05,288.02 L 160.57,286.54 L 161.86,284.87 L 163.49,286.31 L 165.63,286.69 L 167.63,286.03 L 169.69,285.63 L 171.25,286.86 L 173.04,287.71 L 174.78,288.78 L 175.70,290.61 L 175.09,292.66 L 175.13,294.80 L 176.90,296.08 Z" fill="#2c2c2c" opacity="0.513640353602608"/>
  <path d="M 101.65,440.69 L 102.07,441.14 L 102.12,441.75 L 102.12,442.37 L 102.48,442.87 L 102.13,443.48 L 102.16,444.18 L 102.61,444.70 L 102.89,445.32 L 102.47,445.92 L 102.28,446.63 L 102.65,447.26 L 102.82,447.96 L 102.58,448.69 L 102.03,449.22 L 102.16,449.95 L 102.22,450.70 L 101.67,450.92 L 101.25,451.35 L 100.67,451.43 L 100.11,451.62 L 99.54,451.69 L 98.98,451.59 L 98.57,452.02 L 98.00,452.17 L 97.47,452.07 L 96.94,451.97 L 96.40,452.08 L 95.93,452.36 L 95.43,452.17 L 94.98,451.87 L 94.49,452.07 L 93.97,452.22 L 93.47,452.50 L 92.89,452.47 L 92.71,453.01 L 92.30,453.42 L 91.98,453.90 L 91.45,454.12 L 90.91,454.27 L 90.37,454.36 L 89.79,454.37 L 89.21,454.43 L 88.74,454.77 L 88.21,454.99 L 87.62,454.84 L 87.01,454.90 L 86.42,455.03 L 85.87,455.27 L 85.11,455.04 L 84.61,454.41 L 84.02,453.96 L 83.48,453.45 L 83.06,452.85 L 82.49,452.40 L 81.79,452.05 L 81.64,451.28 L 80.94,451.38 L 80.30,451.08 L 79.58,451.04 L 78.94,450.72 L 78.28,450.41 L 77.57,450.21 L 76.77,450.13 L 76.22,449.52 L 76.40,449.00 L 76.80,448.61 L 77.20,448.24 L 77.41,447.74 L 77.85,447.42 L 78.06,446.92 L 78.47,446.58 L 78.75,446.13 L 77.79,446.24 L 76.99,445.69 L 76.14,445.25 L 75.23,444.97 L 74.32,444.55 L 73.51,443.98 L 73.22,443.49 L 72.96,442.98 L 72.45,442.70 L 71.86,442.71 L 71.88,442.12 L 72.15,441.60 L 72.63,441.31 L 73.08,440.95 L 73.29,440.47 L 73.64,440.08 L 73.96,439.64 L 74.46,439.44 L 75.13,438.73 L 75.96,438.21 L 76.70,437.65 L 77.55,437.26 L 77.76,436.76 L 78.00,436.27 L 78.25,435.79 L 78.52,435.33 L 80.16,434.03 L 81.05,432.15 L 82.73,430.99 L 84.28,429.67 L 85.78,427.86 L 88.07,427.33 L 90.15,428.16 L 92.28,428.82 L 94.09,429.79 L 95.42,431.35 L 97.49,431.72 L 99.04,433.13 L 100.08,434.87 L 100.49,436.86 L 100.60,438.92 Z" fill="#2c2c2c" opacity="0.48757801617795893"/>
  <path d="M 48.87,370.80 L 48.68,371.24 L 48.47,371.66 L 48.23,372.06 L 47.98,372.44 L 47.81,373.29 L 47.54,374.11 L 47.19,374.90 L 46.76,375.66 L 46.62,376.63 L 46.15,377.50 L 45.74,377.84 L 45.43,378.28 L 45.17,378.74 L 45.06,379.26 L 44.53,379.50 L 44.11,379.89 L 43.89,380.42 L 43.50,380.84 L 43.29,381.47 L 42.76,381.87 L 42.15,382.06 L 41.51,382.10 L 41.01,382.08 L 40.52,382.04 L 40.04,381.97 L 39.56,381.88 L 38.83,382.17 L 38.05,382.06 L 37.28,381.72 L 36.49,382.01 L 35.76,381.49 L 34.90,381.75 L 34.23,381.16 L 33.33,381.26 L 33.61,380.50 L 33.20,379.80 L 33.30,379.09 L 33.26,378.38 L 33.54,377.73 L 33.49,377.03 L 33.40,376.31 L 33.89,375.78 L 33.13,374.05 L 32.09,372.47 L 31.80,370.59 L 32.03,368.71 L 32.97,367.03 L 34.19,365.55 L 36.01,364.68 L 36.96,362.91 L 38.90,363.33 L 40.87,363.52 L 42.86,363.26 L 44.83,363.66 L 45.29,365.75 L 46.84,367.24 L 47.38,369.29 Z" fill="#2c2c2c" opacity="0.5047995409930846"/>
  <path d="M 116.29,190.39 L 116.05,190.84 L 115.77,191.26 L 115.18,192.04 L 114.54,192.73 L 113.85,193.32 L 113.57,194.06 L 113.23,194.78 L 112.82,195.47 L 112.35,196.12 L 112.17,196.61 L 112.16,197.14 L 111.82,197.55 L 111.33,197.76 L 111.12,198.24 L 110.73,198.60 L 110.37,198.97 L 109.91,199.22 L 109.35,199.27 L 108.83,199.51 L 108.39,199.87 L 108.14,200.39 L 107.59,200.50 L 107.08,200.73 L 106.62,201.06 L 106.07,201.19 L 105.61,200.77 L 104.99,200.89 L 104.39,200.95 L 103.98,200.50 L 103.58,200.12 L 103.04,200.00 L 102.52,199.85 L 102.19,199.42 L 101.63,198.80 L 100.80,198.77 L 100.06,198.49 L 99.54,197.90 L 98.98,197.37 L 98.43,196.84 L 97.72,196.42 L 97.50,195.62 L 97.65,194.96 L 97.83,194.32 L 98.07,193.72 L 98.34,193.16 L 97.73,191.49 L 97.65,189.72 L 98.48,188.07 L 98.14,186.25 L 98.94,184.39 L 100.06,182.70 L 102.16,182.58 L 103.85,181.31 L 105.95,180.60 L 108.16,180.42 L 110.42,180.94 L 111.93,182.70 L 112.82,184.75 L 114.26,186.46 L 115.31,188.41 Z" fill="#2c2c2c" opacity="0.4697138081187531"/>
  <path d="M 529.28,197.66 L 529.00,198.25 L 528.60,198.72 L 528.14,199.05 L 527.65,199.24 L 527.63,199.50 L 527.57,199.78 L 527.47,200.05 L 527.33,200.32 L 526.91,200.28 L 526.51,200.18 L 526.16,200.02 L 525.86,199.81 L 525.51,199.92 L 525.13,199.97 L 524.72,199.95 L 524.29,199.87 L 524.21,199.38 L 524.22,198.92 L 524.31,198.49 L 524.47,198.12 L 524.20,198.01 L 523.95,197.85 L 523.70,197.65 L 523.47,197.42 L 523.52,197.32 L 523.57,197.22 L 523.62,197.12 L 523.67,197.03 L 523.71,196.98 L 523.75,196.94 L 523.79,196.90 L 523.84,196.86 L 524.04,196.72 L 524.25,196.61 L 524.46,196.53 L 524.67,196.47 L 525.25,196.07 L 525.64,195.49 L 526.35,195.13 L 527.14,195.28 L 527.85,195.67 L 528.56,196.06 L 528.82,196.91 Z" fill="#2c2c2c" opacity="0.7390136735275535"/>
  <path d="M 357.59,544.32 L 357.78,545.27 L 357.24,546.06 L 356.49,546.68 L 356.50,547.64 L 356.14,548.44 L 355.45,548.98 L 354.70,549.39 L 354.14,550.02 L 353.86,550.56 L 353.52,551.05 L 353.34,551.74 L 352.69,552.02 L 352.21,552.50 L 351.65,552.87 L 351.21,553.52 L 350.42,553.58 L 349.77,553.15 L 349.19,552.69 L 348.67,552.19 L 348.22,551.65 L 347.72,551.79 L 347.19,551.90 L 346.65,551.97 L 346.09,552.00 L 345.71,551.30 L 345.42,550.59 L 345.21,549.87 L 345.09,549.17 L 344.59,548.77 L 344.12,548.32 L 343.70,547.82 L 343.31,547.27 L 343.52,545.70 L 343.82,544.14 L 343.48,542.59 L 343.35,541.01 L 344.89,540.45 L 346.15,539.42 L 347.43,538.40 L 348.33,537.04 L 349.97,537.44 L 351.63,537.11 L 353.08,537.90 L 354.65,538.43 L 354.58,540.19 L 355.56,541.66 L 356.41,543.12 Z" fill="#2c2c2c" opacity="0.4983857040957851"/>
  <path d="M 646.91,52.58 L 647.22,52.77 L 647.52,53.00 L 647.80,53.25 L 648.07,53.54 L 647.99,53.67 L 647.90,53.80 L 647.81,53.93 L 647.72,54.05 L 647.19,54.80 L 646.53,55.39 L 645.78,55.82 L 644.99,56.05 L 644.43,56.38 L 643.79,56.62 L 643.10,56.74 L 642.36,56.74 L 642.19,56.55 L 642.04,56.35 L 641.90,56.15 L 641.78,55.95 L 641.39,55.75 L 641.03,55.52 L 640.69,55.23 L 640.39,54.92 L 640.11,54.04 L 639.85,53.16 L 639.95,52.25 L 640.07,51.35 L 640.80,50.90 L 641.45,50.35 L 642.11,49.81 L 642.62,49.12 L 643.34,49.54 L 644.06,49.97 L 644.91,50.02 L 645.73,49.83 L 646.04,50.51 L 646.28,51.22 L 646.68,51.86 Z" fill="#2c2c2c" opacity="0.47839502400604494"/>
  <path d="M 58.88,535.73 L 58.82,536.17 L 58.73,536.61 L 58.62,537.03 L 58.49,537.45 L 58.42,538.07 L 58.34,538.69 L 57.98,539.25 L 58.00,539.91 L 57.82,540.55 L 57.45,541.10 L 57.29,541.80 L 56.70,542.21 L 56.08,542.53 L 55.39,542.48 L 54.76,542.47 L 54.13,542.53 L 53.54,542.45 L 52.95,542.36 L 52.51,541.92 L 51.89,542.00 L 51.28,541.95 L 50.68,541.85 L 50.12,541.68 L 49.58,541.47 L 48.93,541.85 L 48.21,542.15 L 47.43,542.37 L 46.59,542.51 L 46.45,542.11 L 46.33,541.72 L 46.23,541.33 L 46.17,540.95 L 45.53,540.45 L 44.94,539.88 L 44.42,539.23 L 43.97,538.52 L 44.18,537.90 L 44.44,537.32 L 44.74,536.79 L 45.09,536.31 L 45.86,535.31 L 46.22,534.09 L 46.35,532.83 L 46.01,531.61 L 47.33,531.30 L 48.31,530.34 L 49.57,529.85 L 50.46,528.83 L 51.63,529.80 L 52.94,530.59 L 54.41,530.03 L 55.97,530.30 L 56.98,531.75 L 58.64,532.36 L 58.41,534.07 Z" fill="#2c2c2c" opacity="0.4704309697237057"/>
  <path d="M 786.28,453.46 L 785.94,454.01 L 785.61,454.58 L 785.56,455.24 L 785.32,455.85 L 784.98,456.37 L 784.78,456.96 L 784.39,457.44 L 784.04,457.95 L 783.65,458.42 L 783.43,458.98 L 782.85,459.21 L 782.48,459.71 L 782.30,460.32 L 781.95,460.84 L 781.34,460.96 L 780.73,461.11 L 780.20,461.52 L 779.81,462.07 L 779.85,462.73 L 779.84,463.40 L 779.64,464.04 L 779.47,464.70 L 778.88,465.05 L 778.46,465.59 L 777.86,465.95 L 777.38,466.45 L 776.83,466.91 L 776.60,467.59 L 775.92,467.90 L 775.21,468.11 L 774.87,468.79 L 774.29,469.28 L 773.51,469.52 L 772.75,469.25 L 772.00,469.02 L 771.33,468.63 L 770.82,468.09 L 770.17,467.75 L 769.42,467.80 L 768.74,467.46 L 768.30,466.86 L 768.05,466.15 L 767.29,466.23 L 766.60,465.90 L 766.22,465.41 L 765.82,464.93 L 765.47,464.41 L 764.95,464.05 L 764.09,464.01 L 763.44,463.46 L 762.52,463.40 L 761.98,462.65 L 761.46,461.94 L 760.63,461.63 L 760.08,460.97 L 759.41,460.41 L 758.58,460.57 L 757.74,460.69 L 756.88,460.77 L 756.02,460.82 L 755.64,460.47 L 755.27,460.10 L 754.90,459.71 L 754.55,459.30 L 754.12,458.67 L 754.06,457.90 L 754.08,457.13 L 753.70,456.46 L 753.75,455.70 L 753.47,454.99 L 753.78,454.22 L 753.37,453.50 L 753.32,452.95 L 753.60,452.46 L 754.00,452.12 L 754.47,451.85 L 755.18,451.22 L 755.71,450.44 L 756.31,449.75 L 757.08,449.26 L 757.58,448.47 L 758.51,448.33 L 758.65,447.67 L 758.58,447.00 L 758.44,446.28 L 758.81,445.64 L 758.86,444.91 L 759.19,444.26 L 759.62,443.64 L 759.73,442.90 L 760.00,442.68 L 760.28,442.46 L 760.57,442.26 L 760.86,442.06 L 761.49,442.10 L 762.11,442.17 L 762.72,442.27 L 763.31,442.40 L 765.16,442.18 L 766.50,440.88 L 768.29,440.64 L 769.83,439.68 L 771.49,440.93 L 773.27,442.02 L 775.43,441.92 L 777.23,440.73 L 778.57,442.20 L 779.99,443.60 L 781.61,444.75 L 783.37,445.68 L 784.67,447.36 L 785.41,449.35 L 785.44,451.49 Z" fill="#2c2c2c" opacity="0.5047154423911838"/>
  <path d="M 583.85,403.46 L 584.21,403.97 L 584.29,404.58 L 583.89,405.05 L 583.70,405.64 L 583.44,406.15 L 583.51,406.72 L 583.40,407.26 L 583.16,407.76 L 583.15,408.33 L 582.91,408.85 L 582.50,409.24 L 582.23,409.75 L 582.12,410.36 L 582.04,410.97 L 581.59,411.42 L 580.96,411.55 L 580.83,412.22 L 580.66,412.90 L 580.45,413.58 L 580.19,414.26 L 579.32,414.72 L 578.40,414.36 L 577.55,414.30 L 576.70,414.20 L 575.88,414.15 L 575.14,413.80 L 574.42,413.53 L 573.73,413.20 L 573.60,413.70 L 573.31,414.14 L 573.10,414.63 L 572.78,415.06 L 572.32,415.40 L 572.16,415.95 L 571.66,416.26 L 571.45,416.81 L 570.93,416.93 L 570.42,416.80 L 570.07,416.42 L 569.65,416.13 L 568.96,415.46 L 568.03,415.22 L 567.42,414.55 L 566.63,414.11 L 565.82,413.69 L 565.45,412.86 L 565.36,412.33 L 565.05,411.89 L 564.70,411.47 L 564.75,410.92 L 564.57,409.97 L 564.49,409.03 L 564.38,408.69 L 564.28,408.35 L 564.19,408.01 L 564.13,407.68 L 563.37,407.36 L 562.63,406.95 L 561.90,406.46 L 561.20,405.89 L 561.43,405.16 L 561.71,404.48 L 562.03,403.83 L 562.38,403.23 L 563.37,401.62 L 564.06,399.86 L 564.31,397.99 L 564.86,396.18 L 566.98,395.79 L 569.13,395.88 L 570.07,393.85 L 572.01,392.73 L 573.92,393.68 L 575.75,394.78 L 577.91,394.80 L 579.96,395.48 L 582.12,396.66 L 583.55,398.67 L 584.49,401.01 Z" fill="#2c2c2c" opacity="0.4404760867982917"/>
  <path d="M 510.66,462.96 L 510.36,463.31 L 510.04,463.64 L 509.71,463.92 L 509.36,464.17 L 509.04,464.86 L 508.63,465.48 L 508.15,466.03 L 507.61,466.50 L 507.45,466.78 L 507.27,467.06 L 507.06,467.33 L 506.84,467.60 L 506.35,468.26 L 505.73,468.87 L 504.99,469.40 L 504.14,469.84 L 503.39,469.66 L 502.67,469.39 L 502.01,469.06 L 501.40,468.66 L 501.16,468.74 L 500.90,468.82 L 500.64,468.88 L 500.38,468.94 L 499.86,468.49 L 499.39,468.00 L 498.97,467.46 L 498.62,466.90 L 498.43,466.68 L 498.25,466.46 L 498.08,466.23 L 497.91,465.99 L 498.14,465.35 L 498.43,464.76 L 498.77,464.23 L 499.15,463.76 L 499.08,463.20 L 499.07,462.64 L 499.12,462.07 L 499.24,461.51 L 499.87,460.80 L 500.60,460.19 L 500.64,459.21 L 501.16,458.38 L 501.96,457.65 L 502.79,456.96 L 503.86,457.01 L 504.93,457.20 L 505.92,457.55 L 506.86,458.02 L 507.90,458.29 L 508.77,458.90 L 509.05,460.09 L 508.94,461.30 L 509.53,462.41 Z" fill="#2c2c2c" opacity="0.7325782945080173"/>
  <path d="M 548.36,147.79 L 548.82,148.29 L 549.25,148.84 L 549.64,149.44 L 549.99,150.09 L 549.68,150.74 L 549.44,151.42 L 548.95,151.96 L 548.70,152.64 L 548.27,153.19 L 547.82,153.73 L 547.36,154.25 L 546.80,154.66 L 546.78,155.29 L 546.32,155.71 L 545.81,156.10 L 545.69,156.73 L 545.22,157.16 L 544.91,157.70 L 544.43,158.14 L 543.98,158.61 L 543.61,158.16 L 543.09,157.91 L 542.52,157.98 L 541.96,158.01 L 541.46,157.77 L 540.92,157.87 L 540.55,157.50 L 540.24,157.07 L 539.62,156.41 L 538.88,155.88 L 538.32,155.26 L 537.91,154.52 L 537.30,154.68 L 536.91,155.18 L 536.26,155.26 L 535.77,155.70 L 535.05,155.58 L 534.51,156.06 L 533.87,156.41 L 533.15,156.26 L 532.67,155.78 L 532.33,155.19 L 531.82,154.73 L 531.65,154.06 L 531.11,153.60 L 531.14,152.88 L 531.11,152.23 L 530.78,151.66 L 531.06,151.19 L 531.37,150.74 L 531.69,150.32 L 532.03,149.92 L 531.22,149.42 L 530.46,148.80 L 530.19,148.35 L 529.73,148.08 L 529.47,147.61 L 529.07,147.26 L 529.18,146.91 L 529.30,146.57 L 529.43,146.23 L 529.58,145.90 L 530.15,145.61 L 530.73,145.35 L 531.31,145.14 L 531.89,144.97 L 532.12,144.11 L 532.43,143.27 L 532.84,142.46 L 533.33,141.68 L 534.55,141.01 L 535.94,140.90 L 537.18,140.25 L 538.02,139.14 L 539.23,139.71 L 540.58,139.73 L 541.89,139.45 L 543.20,139.68 L 543.35,141.16 L 544.35,142.26 L 545.83,142.18 L 547.08,142.99 L 547.24,144.23 L 547.74,145.38 L 547.96,146.61 Z" fill="#2c2c2c" opacity="0.45489741378701554"/>
  <path d="M 15.26,590.56 L 15.23,591.56 L 15.07,592.55 L 14.75,593.01 L 14.31,593.35 L 14.33,593.92 L 14.48,594.46 L 14.30,594.93 L 14.02,595.35 L 13.69,595.73 L 13.51,596.21 L 13.08,596.55 L 12.55,596.71 L 12.45,597.25 L 12.18,597.73 L 11.69,598.10 L 11.14,598.38 L 10.60,598.66 L 10.03,598.89 L 9.55,599.35 L 8.88,599.24 L 8.33,599.52 L 7.72,599.44 L 7.37,599.86 L 6.82,599.89 L 6.32,600.04 L 5.85,600.25 L 5.40,600.62 L 4.82,600.50 L 4.26,600.44 L 3.74,600.64 L 3.10,600.46 L 2.56,600.85 L 1.95,600.93 L 1.33,600.91 L 0.67,601.15 L 0.04,600.83 L -0.64,600.87 L -1.27,600.59 L -1.74,599.90 L -1.70,599.07 L -1.94,598.35 L -1.89,597.59 L -1.79,596.88 L -1.86,596.17 L -2.01,595.46 L -1.62,594.84 L -1.44,592.90 L -2.08,591.05 L -2.11,589.14 L -2.39,587.24 L -0.92,585.89 L 0.82,584.91 L 1.82,583.16 L 3.35,581.85 L 5.40,581.01 L 7.61,580.95 L 9.60,581.86 L 11.35,583.19 L 13.31,584.38 L 14.94,586.00 L 14.63,588.31 Z" fill="#2c2c2c" opacity="0.6619476788860978"/>
  <path d="M 765.48,465.45 L 765.86,466.01 L 766.20,466.61 L 766.51,467.25 L 766.78,467.92 L 766.02,468.29 L 765.82,469.12 L 765.28,469.62 L 764.75,470.13 L 764.12,470.45 L 763.61,470.94 L 763.12,471.46 L 762.42,471.56 L 762.25,472.07 L 762.06,472.59 L 761.83,473.10 L 761.56,473.60 L 761.13,473.97 L 760.90,474.48 L 760.39,474.67 L 759.90,474.91 L 759.58,475.41 L 759.16,475.82 L 758.57,475.66 L 757.99,475.88 L 757.46,476.07 L 756.90,476.03 L 756.46,476.40 L 755.89,476.46 L 755.35,476.68 L 754.81,476.88 L 754.27,476.68 L 753.68,476.62 L 752.78,476.54 L 751.89,476.40 L 751.06,475.97 L 750.13,475.88 L 749.44,475.19 L 748.47,475.08 L 747.74,474.50 L 746.94,474.02 L 746.27,473.55 L 745.63,473.04 L 745.03,472.47 L 744.45,471.85 L 744.06,471.18 L 743.91,470.42 L 743.58,469.73 L 743.55,468.96 L 743.34,468.24 L 743.39,467.49 L 743.11,466.76 L 743.41,466.03 L 743.64,465.55 L 743.50,465.03 L 743.68,464.05 L 743.95,463.10 L 744.29,462.18 L 744.88,462.03 L 745.19,461.52 L 745.66,461.25 L 746.13,460.99 L 746.69,460.98 L 747.08,460.58 L 748.03,460.31 L 747.78,459.93 L 747.55,459.54 L 747.33,459.14 L 747.12,458.73 L 747.39,457.91 L 747.75,457.10 L 748.19,456.29 L 748.71,455.51 L 750.25,455.55 L 751.75,455.18 L 753.15,454.57 L 754.59,454.03 L 756.13,454.02 L 757.67,454.05 L 758.82,455.12 L 760.28,455.70 L 760.64,457.21 L 761.59,458.44 L 762.98,459.07 L 764.24,459.93 L 764.38,461.38 L 765.14,462.63 L 765.80,463.98 Z" fill="#2c2c2c" opacity="0.7540046099155218"/>
</svg>
